<?xml version="1.0" encoding="UTF-8" standalone="no"?>
<svg
   xmlns:dc="http://purl.org/dc/elements/1.1/"
   xmlns:cc="http://creativecommons.org/ns#"
   xmlns:rdf="http://www.w3.org/1999/02/22-rdf-syntax-ns#"
   xmlns:svg="http://www.w3.org/2000/svg"
   xmlns="http://www.w3.org/2000/svg"
   viewBox="200 250 1200 500"
   height="200"
   width="800"
   xml:space="preserve"
   id="svg2"
   version="1.1">
   <metadata id="metadata8">
    <rdf:RDF>
      <cc:Work
         rdf:about=""><dc:format>image/svg+xml</dc:format><dc:type
           rdf:resource="http://purl.org/dc/dcmitype/StillImage" /></cc:Work></rdf:RDF></metadata><defs
     id="defs6"><clipPath
       id="clipPath20"
       clipPathUnits="userSpaceOnUse"><path
         id="path18"
         d="M 0,720 H 1124 V 0 H 0 Z" /></clipPath></defs><g
     transform="matrix(1.3333333,0,0,-1.3333333,0,960)"
     id="g10"><path
       id="path12"
       style="fill:#fbfafc;fill-opacity:1;fill-rule:nonzero;stroke:none"
       d="M 0.454,0 H 1123.983 V 720 H 0.454 Z" /><g
       id="g14"><g
         clip-path="url(#clipPath20)"
         id="g16"><g
           transform="translate(323.0438,325.5519)"
           id="g22"><path
             id="path24"
             style="fill:#583563;fill-opacity:1;fill-rule:nonzero;stroke:none"
             d="m 0,0 v -17.539 h 21.357 c 1.616,0 3.037,0.247 4.263,0.74 1.226,0.494 2.242,1.154 3.052,1.976 0.808,0.825 1.42,1.757 1.838,2.801 0.417,1.042 0.626,2.113 0.626,3.211 0,1.097 -0.209,2.182 -0.626,3.253 -0.418,1.071 -1.03,2.017 -1.838,2.842 -0.81,0.822 -1.826,1.482 -3.052,1.976 C 24.394,-0.247 22.973,0 21.357,0 Z M -9.153,-49.244 V 8.401 h 32.074 c 2.974,0 5.568,-0.495 7.784,-1.482 2.217,-0.989 4.069,-2.28 5.556,-3.872 1.486,-1.592 2.593,-3.417 3.324,-5.475 0.73,-2.059 1.096,-4.16 1.096,-6.3 0,-1.812 -0.249,-3.582 -0.744,-5.311 -0.496,-1.73 -1.251,-3.323 -2.269,-4.777 -1.017,-1.455 -2.295,-2.745 -3.833,-3.871 -1.539,-1.126 -3.325,-1.963 -5.359,-2.511 L 46.47,-49.244 H 34.969 L 18.463,-25.94 H 0 v -23.304 z" /></g><g
           transform="translate(384.9216,333.953)"
           id="g26"><path
             id="path28"
             style="fill:#583563;fill-opacity:1;fill-rule:nonzero;stroke:none"
             d="m 0,0 v -34.917 c 0,-2.526 0.508,-4.749 1.525,-6.67 1.017,-1.923 2.347,-3.529 3.99,-4.818 1.643,-1.29 3.533,-2.252 5.672,-2.882 2.138,-0.631 4.302,-0.946 6.493,-0.946 2.191,0 4.354,0.315 6.493,0.946 2.138,0.63 4.029,1.592 5.672,2.882 1.643,1.289 2.973,2.895 3.99,4.818 1.017,1.921 1.526,4.144 1.526,6.67 V 0 h 9.231 v -34.917 c 0,-4.118 -0.77,-7.714 -2.308,-10.788 -1.539,-3.075 -3.573,-5.641 -6.102,-7.699 -2.531,-2.06 -5.398,-3.611 -8.605,-4.653 -3.208,-1.042 -6.508,-1.564 -9.897,-1.564 -3.338,0 -6.624,0.522 -9.857,1.564 -3.234,1.042 -6.102,2.593 -8.605,4.653 -2.504,2.058 -4.526,4.624 -6.064,7.699 -1.539,3.074 -2.308,6.67 -2.308,10.788 V 0 Z" /></g><g
           transform="translate(449.8542,302.0009)"
           id="g30"><path
             id="path32"
             style="fill:#583563;fill-opacity:1;fill-rule:nonzero;stroke:none"
             d="m 0,0 v -17.458 h 23.156 c 1.512,0 2.842,0.246 3.99,0.742 1.147,0.493 2.099,1.151 2.856,1.976 0.755,0.822 1.33,1.756 1.72,2.798 0.392,1.044 0.587,2.113 0.587,3.212 0,1.098 -0.195,2.17 -0.587,3.212 -0.39,1.043 -0.965,1.977 -1.72,2.8 -0.757,0.824 -1.709,1.482 -2.856,1.976 C 25.998,-0.247 24.668,0 23.156,0 Z M 0,24.129 V 7.659 h 18.228 c 1.512,0 2.841,0.231 3.99,0.699 1.146,0.466 2.098,1.083 2.855,1.853 0.756,0.768 1.33,1.647 1.721,2.636 0.391,0.987 0.586,2.003 0.586,3.047 0,1.042 -0.195,2.058 -0.586,3.047 -0.391,0.987 -0.965,1.865 -1.721,2.634 -0.757,0.768 -1.709,1.387 -2.855,1.853 -1.149,0.466 -2.478,0.701 -3.99,0.701 z m -9.154,7.823 h 28.712 c 2.867,0 5.371,-0.454 7.51,-1.359 2.138,-0.907 3.923,-2.115 5.359,-3.623 1.433,-1.512 2.503,-3.227 3.207,-5.148 0.705,-1.921 1.057,-3.87 1.057,-5.846 0,-1.923 -0.327,-3.789 -0.979,-5.601 -0.652,-1.811 -1.63,-3.458 -2.933,-4.94 2.92,-1.593 5.097,-3.72 6.532,-6.383 1.434,-2.663 2.152,-5.475 2.152,-8.44 0,-2.031 -0.352,-4.034 -1.057,-6.012 -0.703,-1.976 -1.774,-3.719 -3.207,-5.229 -1.435,-1.51 -3.207,-2.732 -5.32,-3.664 -2.112,-0.934 -4.576,-1.4 -7.393,-1.4 h -33.64 z" /></g><path
           id="path34"
           style="fill:#583563;fill-opacity:1;fill-rule:nonzero;stroke:none"
           d="m 501.722,333.953 h 9.154 v -57.645 h -9.154 z" /><g
           transform="translate(522.9231,276.3076)"
           id="g36"><path
             id="path38"
             style="fill:#583563;fill-opacity:1;fill-rule:nonzero;stroke:none"
             d="M 0,0 V 57.645 H 9.153 L 48.035,12.518 v 45.127 h 9.231 V 0 H 48.035 L 9.153,45.128 V 0 Z" /></g><g
           transform="translate(620.3229,333.953)"
           id="g40"><path
             id="path42"
             style="fill:#583563;fill-opacity:1;fill-rule:nonzero;stroke:none"
             d="m 0,0 v -49.328 h 38.567 v -8.317 h -47.72 l 0,57.645 z" /></g><g
           transform="translate(684.5494,294.0951)"
           id="g44"><path
             id="path46"
             style="fill:#583563;fill-opacity:1;fill-rule:nonzero;stroke:none"
             d="M 0,0 H 28.321 L 14.161,29.234 Z M -18.384,-17.788 9.623,40.681 h 9.075 l 28.007,-58.469 h -9.779 l -4.537,9.471 H -4.067 l -4.617,-9.471 z" /></g><g
           transform="translate(727.3226,333.953)"
           id="g48"><path
             id="path50"
             style="fill:#583563;fill-opacity:1;fill-rule:nonzero;stroke:none"
             d="M 0,0 H 9.7 L 25.426,-44.716 41.306,0 h 6.182 L 63.368,-44.716 79.092,0 h 9.702 L 67.358,-58.47 H 59.927 L 44.358,-15.894 28.79,-58.47 h -7.433 z" /></g><g
           transform="translate(821.2682,285.2844)"
           id="g52"><path
             id="path54"
             style="fill:#583563;fill-opacity:1;fill-rule:nonzero;stroke:none"
             d="M 0,0 H 9.232 L -0.312,-15.812 H -6.336 Z" /></g><g
           transform="translate(867.9728,325.5519)"
           id="g56"><path
             id="path58"
             style="fill:#583563;fill-opacity:1;fill-rule:nonzero;stroke:none"
             d="m 0,0 v -20.01 h 19.479 c 1.565,0 2.92,0.288 4.069,0.865 1.146,0.576 2.111,1.33 2.894,2.264 0.782,0.932 1.37,2.004 1.76,3.212 0.391,1.206 0.587,2.414 0.587,3.623 0,1.263 -0.196,2.498 -0.587,3.705 -0.39,1.208 -0.978,2.278 -1.76,3.212 -0.783,0.934 -1.748,1.689 -2.894,2.265 C 22.399,-0.288 21.044,0 19.479,0 Z M -9.153,-49.244 V 8.401 h 29.337 c 2.973,0 5.554,-0.523 7.744,-1.565 2.19,-1.043 4.029,-2.43 5.515,-4.159 1.488,-1.729 2.595,-3.693 3.325,-5.889 0.73,-2.195 1.097,-4.445 1.097,-6.752 0,-2.305 -0.367,-4.557 -1.097,-6.752 -0.73,-2.197 -1.837,-4.158 -3.325,-5.889 -1.486,-1.729 -3.325,-3.128 -5.515,-4.199 -2.19,-1.071 -4.771,-1.606 -7.744,-1.606 H 0 v -20.834 z" /></g><g
           transform="translate(910.3671,281.0016)"
           id="g60"><path
             id="path62"
             style="fill:#583563;fill-opacity:1;fill-rule:nonzero;stroke:none"
             d="M 0,0 C 0,1.428 0.482,2.636 1.446,3.623 2.411,4.612 3.572,5.105 4.929,5.105 6.285,5.105 7.431,4.612 8.37,3.623 9.309,2.636 9.779,1.428 9.779,0 9.779,-1.428 9.309,-2.663 8.37,-3.705 7.431,-4.749 6.285,-5.27 4.929,-5.27 3.572,-5.27 2.411,-4.749 1.446,-3.705 0.482,-2.663 0,-1.428 0,0" /></g><g
           transform="translate(926.3226,305.1302)"
           id="g64"><path
             id="path66"
             style="fill:#583563;fill-opacity:1;fill-rule:nonzero;stroke:none"
             d="m 0,0 c 0,5.051 0.937,9.482 2.816,13.299 1.878,3.815 4.289,6.986 7.236,9.512 2.946,2.524 6.245,4.418 9.897,5.681 3.65,1.263 7.249,1.895 10.795,1.895 5.112,0 9.909,-1.071 14.396,-3.211 4.485,-2.142 8.214,-5.217 11.186,-9.224 l -7.275,-6.094 c -1.044,1.427 -2.257,2.704 -3.639,3.828 -1.381,1.126 -2.868,2.088 -4.459,2.883 -1.59,0.795 -3.234,1.4 -4.927,1.812 -1.697,0.413 -3.378,0.618 -5.047,0.618 -3.548,0 -6.65,-0.605 -9.31,-1.811 -2.66,-1.209 -4.863,-2.801 -6.61,-4.777 C 13.311,12.434 11.995,10.197 11.109,7.7 10.221,5.201 9.779,2.634 9.779,0 c 0,-2.636 0.442,-5.203 1.33,-7.7 0.886,-2.499 2.202,-4.722 3.95,-6.67 1.747,-1.951 3.95,-3.529 6.61,-4.735 2.66,-1.209 5.762,-1.812 9.31,-1.812 3.859,0 7.34,0.836 10.444,2.511 3.103,1.674 5.672,3.912 7.707,6.713 l 7.196,-6.094 c -1.513,-1.977 -3.234,-3.747 -5.162,-5.312 -1.932,-1.564 -4.017,-2.882 -6.259,-3.953 -2.243,-1.072 -4.566,-1.894 -6.963,-2.47 -2.399,-0.578 -4.824,-0.865 -7.275,-0.865 -3.495,0 -7.068,0.632 -10.718,1.893 -3.652,1.263 -6.951,3.157 -9.897,5.683 -2.947,2.525 -5.358,5.695 -7.236,9.512 C 0.937,-9.484 0,-5.052 0,0" /></g><g
           transform="translate(988.3556,281.0016)"
           id="g68"><path
             id="path70"
             style="fill:#583563;fill-opacity:1;fill-rule:nonzero;stroke:none"
             d="M 0,0 C 0,1.428 0.482,2.636 1.446,3.623 2.411,4.612 3.571,5.105 4.929,5.105 6.284,5.105 7.431,4.612 8.37,3.623 9.309,2.636 9.779,1.428 9.779,0 9.779,-1.428 9.309,-2.663 8.37,-3.705 7.431,-4.749 6.284,-5.27 4.929,-5.27 3.571,-5.27 2.411,-4.749 1.446,-3.705 0.482,-2.663 0,-1.428 0,0" /></g><g
           transform="translate(159.8207,420.498)"
           id="g72"><path
             id="path74"
             style="fill:#583563;fill-opacity:1;fill-rule:nonzero;stroke:none"
             d="m 0,0 h 37.334 l 2.531,-0.216 C 52.097,-1.398 60.4,-9.599 60.4,-21.256 c 0,-10.716 -4.114,-16.189 -13.81,-19.702 -6.892,-2.23 -14.536,-2.619 -23.175,-1.757 l 44.121,-63.782 h 38.994 l -35.549,49.729 c 13.446,6.824 19.594,20.083 19.594,35.512 0,34.17 -26.485,51.283 -52.482,51.283 v 0.002 h -68.172 l 0.301,-181.016 h 136.299 v 30.029 H 0.201 Z" /></g></g></g></g></svg>